<?xml version="1.0" encoding="UTF-8" standalone="no"?>
<!DOCTYPE svg PUBLIC "-//W3C//DTD SVG 1.1//EN" "http://www.w3.org/Graphics/SVG/1.1/DTD/svg11.dtd">
<svg width="100%" height="100%" viewBox="0 0 165 40" version="1.1" xmlns="http://www.w3.org/2000/svg" xmlns:xlink="http://www.w3.org/1999/xlink" xml:space="preserve" xmlns:serif="http://www.serif.com/" style="fill-rule:evenodd;clip-rule:evenodd;stroke-linejoin:round;stroke-miterlimit:2;">
    <g transform="matrix(2.49321,0,0,2.49321,-33.088645,-12.3636)">
        <path d="M22.573,13.203L22.573,5.443L20.109,5.443L20.109,13.203C20.109,14.339 19.149,15.267 18.013,15.267C16.877,15.267 15.965,14.355 15.965,13.219C15.965,12.083 16.877,11.171 18.013,11.171C18.557,11.171 19.053,11.331 19.421,11.587L19.421,8.883C18.989,8.739 18.493,8.659 18.013,8.659C15.501,8.659 13.453,10.707 13.453,13.219C13.453,15.731 15.501,17.779 18.013,17.779C20.525,17.779 22.573,15.715 22.573,13.203Z" style="fill:white;fill-rule:nonzero;"/>
        <path d="M26.205,6.819C26.205,5.987 25.533,5.315 24.701,5.315C23.869,5.315 23.197,5.987 23.197,6.819C23.197,7.651 23.869,8.307 24.701,8.307C25.533,8.307 26.205,7.651 26.205,6.819ZM25.901,17.587L25.901,8.835L23.437,8.835L23.437,17.587L25.901,17.587Z" style="fill:white;fill-rule:nonzero;"/>
        <path d="M34.909,16.115L34.909,12.899C34.909,10.563 33.005,8.659 30.669,8.659C28.333,8.659 26.429,10.563 26.429,12.899C26.429,15.235 28.333,17.139 30.669,17.139C31.085,17.139 31.485,17.075 31.869,16.963L31.869,14.259C31.501,14.547 31.229,14.723 30.669,14.723C29.661,14.723 28.845,13.907 28.845,12.899C28.845,11.891 29.661,11.075 30.669,11.075C31.677,11.075 32.429,12.051 32.445,13.091L32.445,16.771C32.445,17.523 31.821,18.483 30.077,18.483C29.453,18.483 28.621,18.387 27.981,18.195L27.981,20.659C28.653,20.739 28.957,20.771 29.709,20.771C33.277,20.771 34.909,18.851 34.909,16.115Z" style="fill:white;fill-rule:nonzero;"/>
        <path d="M38.525,6.819C38.525,5.987 37.853,5.315 37.021,5.315C36.189,5.315 35.517,5.987 35.517,6.819C35.517,7.651 36.189,8.307 37.021,8.307C37.853,8.307 38.525,7.651 38.525,6.819ZM38.221,17.587L38.221,8.835L35.757,8.835L35.757,17.587L38.221,17.587Z" style="fill:white;fill-rule:nonzero;"/>
        <path d="M51.421,17.587L51.421,12.531C51.421,10.323 50.157,8.659 47.741,8.659C46.701,8.659 45.869,9.043 45.261,9.651C44.621,9.043 43.773,8.659 42.749,8.659C40.333,8.659 39.069,10.323 39.069,12.531L39.069,17.587L41.533,17.587L41.533,13.059C41.533,12.115 41.773,11.251 42.781,11.251C43.789,11.251 44.013,12.115 44.013,13.059L44.013,17.587L46.477,17.587L46.477,13.059C46.477,12.115 46.717,11.251 47.725,11.251C48.733,11.251 48.957,12.115 48.957,13.059L48.957,17.587L51.421,17.587Z" style="fill:white;fill-rule:nonzero;"/>
        <path d="M61.069,17.587L61.069,13.235C61.069,10.723 59.021,8.659 56.509,8.659C53.997,8.659 51.949,10.707 51.949,13.219C51.949,15.731 53.997,17.779 56.509,17.779C56.989,17.779 57.485,17.699 57.917,17.555L57.917,14.851C57.549,15.107 57.053,15.267 56.509,15.267C55.373,15.267 54.461,14.355 54.461,13.219C54.461,12.083 55.373,11.171 56.509,11.171C57.645,11.171 58.605,12.099 58.605,13.235L58.605,17.587L61.069,17.587Z" style="fill:white;fill-rule:nonzero;"/>
        <path d="M69.677,16.275L69.677,8.835L67.213,8.835L67.213,13.235C67.213,14.179 66.733,14.883 65.773,14.883C64.765,14.883 64.381,14.179 64.381,13.235L64.381,8.835L61.917,8.835L61.917,13.907C61.917,16.035 63.245,17.267 64.925,17.267C65.773,17.267 66.493,16.995 67.085,16.691C67.085,17.971 66.189,18.531 64.813,18.531C63.789,18.531 63.229,18.371 62.701,18.211L62.701,20.723C63.741,20.867 64.301,20.867 64.989,20.867C66.541,20.867 69.677,20.243 69.677,16.275Z" style="fill:white;fill-rule:nonzero;"/>
        <path d="M79.325,17.587L79.325,13.235C79.325,10.723 77.277,8.659 74.765,8.659C72.253,8.659 70.205,10.707 70.205,13.219C70.205,15.731 72.253,17.779 74.765,17.779C75.245,17.779 75.741,17.699 76.173,17.555L76.173,14.851C75.805,15.107 75.309,15.267 74.765,15.267C73.629,15.267 72.717,14.355 72.717,13.219C72.717,12.083 73.629,11.171 74.765,11.171C75.901,11.171 76.861,12.099 76.861,13.235L76.861,17.587L79.325,17.587Z" style="fill:white;fill-rule:nonzero;"/>
    </g>
</svg>
